<svg xmlns="http://www.w3.org/2000/svg" width="178.499" height="45" viewBox="0 0 178.499 45">
  <g id="그룹_246" data-name="그룹 246" transform="translate(-90.999 -78.001)">
    <g id="그룹_242" data-name="그룹 242" transform="translate(3.23 -540.281)">
      <path id="패스_223" data-name="패스 223" d="M132.746,640.782a22.489,22.489,0,1,1-22.488-22.5A22.5,22.5,0,0,1,132.746,640.782Z" fill="#002c61"/>
      <path id="패스_224" data-name="패스 224" d="M108.737,623.05a30.068,30.068,0,0,1,2.234,10.5,6.827,6.827,0,0,0,.768,3.671,2.168,2.168,0,0,0,1.462.83,2.769,2.769,0,0,0,2.039-.487c2.2-1.666,5.127-8.138,5.455-11.236-.08-.059-.164-.123-.164-.123a19.116,19.116,0,0,0-2.578-1.521,17.578,17.578,0,0,0-7.695-1.748Z" fill="#80ae12"/>
      <path id="패스_225" data-name="패스 225" d="M105.275,644h0c-2.2,1.668-5.128,8.14-5.456,11.24.081.059.165.123.165.123a19.283,19.283,0,0,0,2.577,1.523,17.649,17.649,0,0,0,7.7,1.746s-.022.023-.03.03a10.423,10.423,0,0,1,1.16-.114s.194-.017.387-.031a30.028,30.028,0,0,1-2.233-10.5,6.839,6.839,0,0,0-.767-3.676,2.145,2.145,0,0,0-1.46-.826A2.765,2.765,0,0,0,105.275,644Z" fill="#0088d1"/>
      <path id="패스_226" data-name="패스 226" d="M102.148,624.888a17.9,17.9,0,0,0-9.439,13.127h6.529c.846,0,3.73-.12,5.244-1.665a3.516,3.516,0,0,0,.961-2.557c-.081-4.358-1.118-8.109-2.465-8.913A.765.765,0,0,0,102.148,624.888Z" fill="#fff"/>
      <path id="패스_227" data-name="패스 227" d="M121.276,643.551c-.847,0-3.728.119-5.244,1.664a3.516,3.516,0,0,0-.961,2.555c.083,4.361,1.117,8.111,2.466,8.916a.758.758,0,0,0,.828-.009,17.9,17.9,0,0,0,9.441-13.126Z" fill="#fff"/>
      <path id="패스_228" data-name="패스 228" d="M121.788,638.01h6.007a17.79,17.79,0,0,0-2.757-6.978A31.523,31.523,0,0,1,121.788,638.01Z" fill="#fff"/>
      <path id="패스_229" data-name="패스 229" d="M92.72,643.552a17.749,17.749,0,0,0,2.759,6.983,31.437,31.437,0,0,1,3.246-6.983Z" fill="#fff"/>
    </g>
    <path id="합치기_30" data-name="합치기 30" d="M17448.84,19112.834a5.792,5.792,0,0,1,0-9.471,9.863,9.863,0,0,1,11.82,0,5.794,5.794,0,0,1,0,9.471,9.863,9.863,0,0,1-11.82,0Zm3.564-7.129a3.351,3.351,0,0,0,2.346,5.742,3.283,3.283,0,0,0,2.365-.959,3.4,3.4,0,0,0,0-4.783,3.272,3.272,0,0,0-2.365-.955A3.205,3.205,0,0,0,17452.4,19105.705Zm40.439,8.793v-5.334H17476.6v-3.363h18.316a2.8,2.8,0,0,1,2.8,2.816v5.881Zm-61.523-.514v-16.5h-1.641v16.5h-4.414v-9.076a21.81,21.81,0,0,1-4.187.355h-8.967a4.493,4.493,0,0,1-3.084-.926,3.663,3.663,0,0,1-1.027-2.869v-13.711h14.867v3.354h-9.758v10.176a.548.548,0,0,0,.191.455.7.7,0,0,0,.467.145h8.691a10.923,10.923,0,0,0,2.807-.312l0-15.572h2.715s1.645-.109,1.7,1.416v6.717h1.641V19086h2.715s1.641-.109,1.7,1.416v26.566Zm71.291-2.02v-3.531h30.121v3.531Zm-9.6-6.922v-.639h-6.176v-3.031h6.176v-1.084a32.043,32.043,0,0,1-6.914.719h-3v4.035h-4.9v-4.035h-6.721v-3.186h15.293a40.855,40.855,0,0,0,6.242-.555v-10.66h3.463a1.4,1.4,0,0,1,1.4,1.406v17.029Zm29.391-2.754a4.922,4.922,0,0,0-9.488,0,21.207,21.207,0,0,1-6.605,1.938l-2.494-2.82a16.473,16.473,0,0,0,8.021-3.275,7.483,7.483,0,0,0,3.229-5.939v-4.75h3.77a1.474,1.474,0,0,1,1.453,1.492v3.258a7.477,7.477,0,0,0,3.215,5.939,16.368,16.368,0,0,0,8.035,3.275l-2.494,2.82A21.237,21.237,0,0,1,17522.4,19102.289Zm-63.375-1.559V19086h3.2s1.928-.109,2,1.416v1.521h4.107v3.348h-4.107v1.746h4.107v3.354h-4.107v3.344Zm-17.26-2.451a5.8,5.8,0,0,1,0-9.475,9.863,9.863,0,0,1,11.82,0,5.8,5.8,0,0,1,0,9.475,9.863,9.863,0,0,1-11.82,0Zm3.559-7.129a3.354,3.354,0,0,0,2.352,5.742,3.271,3.271,0,0,0,2.359-.965,3.367,3.367,0,0,0,0-4.777,3.249,3.249,0,0,0-2.359-.959A3.2,3.2,0,0,0,17445.322,19091.15Zm30.641,4.395a4.5,4.5,0,0,1,0-7.906,10.577,10.577,0,0,1,11.316,0,4.495,4.495,0,0,1,0,7.906,10.577,10.577,0,0,1-11.316,0Zm3.41-5.949a2.626,2.626,0,0,0,0,3.992,3.575,3.575,0,0,0,4.51,0,2.563,2.563,0,0,0,0-3.992,3.575,3.575,0,0,0-4.51,0Z" transform="translate(-17263.734 -18999.477)" fill="#002c61" stroke="rgba(0,0,0,0)" stroke-miterlimit="10" stroke-width="1"/>
  </g>
</svg>
